<svg xmlns="http://www.w3.org/2000/svg">
    <symbol id="user" viewBox="0 0 512 512">
        <circle cx="256" cy="128" r="128"/><path d="M256 298.667c-105.99.118-191.882 86.01-192 192C64 502.449 73.551 512 85.333 512h341.333c11.782 0 21.333-9.551 21.333-21.333-.117-105.99-86.009-191.883-191.999-192z"/>
    </symbol>
    <symbol id="password" viewBox="0 0 512 512">
        <path d="M405.333 179.712v-30.379C405.333 66.859 338.475 0 256 0S106.667 66.859 106.667 149.333v30.379c-38.826 16.945-63.944 55.259-64 97.621v128C42.737 464.214 90.452 511.93 149.333 512h213.333c58.881-.07 106.596-47.786 106.667-106.667v-128c-.055-42.362-25.174-80.676-64-97.621zm-128 182.955c0 11.782-9.551 21.333-21.333 21.333-11.782 0-21.333-9.551-21.333-21.333V320c0-11.782 9.551-21.333 21.333-21.333 11.782 0 21.333 9.551 21.333 21.333v42.667zm85.334-192H149.333v-21.333c0-58.91 47.756-106.667 106.667-106.667s106.667 47.756 106.667 106.667v21.333z"/>
    </symbol>
    <symbol id="heart" viewBox="0 0 24 24">
        <path d="m17.5 1.917a6.4 6.4 0 0 0-5.5 3.3 6.4 6.4 0 0 0-5.5-3.3 6.8 6.8 0 0 0-6.5 7.05c0 4.547 4.786 9.513 8.8 12.88a4.974 4.974 0 0 0 6.4 0c4.014-3.367 8.8-8.333 8.8-12.88a6.8 6.8 0 0 0-6.5-7.05z"/>
    </symbol>
    <symbol id="search" viewBox="0 0 24 24">
        <path d="m23.707 22.293-5.969-5.969a10.016 10.016 0 1 0-1.414 1.414l5.969 5.969a1 1 0 0 0 1.414-1.414ZM10 18a8 8 0 1 1 8-8 8.009 8.009 0 0 1-8 8Z"/>
    </symbol>
    <!-- <symbol id="add" viewBox="0 0 512 512">
        <path d="M480 224H288V32c0-17.673-14.327-32-32-32s-32 14.327-32 32v192H32c-17.673 0-32 14.327-32 32s14.327 32 32 32h192v192c0 17.673 14.327 32 32 32s32-14.327 32-32V288h192c17.673 0 32-14.327 32-32s-14.327-32-32-32z"/>
    </symbol> -->
    <symbol id="edit" viewBox="0 0 24 24">
        <path d="M1.172 19.119A4 4 0 0 0 0 21.947V24h2.053a4 4 0 0 0 2.828-1.172L18.224 9.485l-3.709-3.709ZM23.145.855a2.622 2.622 0 0 0-3.71 0l-3.506 3.507 3.709 3.709 3.507-3.506a2.622 2.622 0 0 0 0-3.71Z"/>
    </symbol>
    <symbol id='rating' viewBox="0 0 24 24">
        <path d='m24 8.48v11.52a1 1 0 0 1 -2 0v-8.248l-7.4 3.536a5 5 0 0 1 -2.577.694 5.272 5.272 0 0 1 -2.7-.739l-7.38-3.513a3.691 3.691 0 0 1 -.084-6.455c.027-.016.056-.031.084-.045l7.457-3.558a5.226 5.226 0 0 1 5.282.045l7.375 3.513a3.767 3.767 0 0 1 1.943 3.25zm-11.978 9.5a7.26 7.26 0 0 1 -3.645-.972l-4.377-2.089v2.7a5.007 5.007 0 0 0 3.519 4.778 15.557 15.557 0 0 0 4.481.603 15.557 15.557 0 0 0 4.481-.607 5.007 5.007 0 0 0 3.519-4.778v-2.691l-4.459 2.13a6.983 6.983 0 0 1 -3.519.928z'/>
    </symbol>
    <symbol id="applications" viewBox="0 0 512 512">
        <path d="M85.333,0h64c47.128,0,85.333,38.205,85.333,85.333v64c0,47.128-38.205,85.333-85.333,85.333h-64   C38.205,234.667,0,196.462,0,149.333v-64C0,38.205,38.205,0,85.333,0z"/>
	    <path d="M362.667,0h64C473.795,0,512,38.205,512,85.333v64c0,47.128-38.205,85.333-85.333,85.333h-64   c-47.128,0-85.333-38.205-85.333-85.333v-64C277.333,38.205,315.538,0,362.667,0z"/>
	    <path d="M85.333,277.333h64c47.128,0,85.333,38.205,85.333,85.333v64c0,47.128-38.205,85.333-85.333,85.333h-64   C38.205,512,0,473.795,0,426.667v-64C0,315.538,38.205,277.333,85.333,277.333z"/>
	    <path d="m362.67 277.33h64c47.128 0 85.333 38.205 85.333 85.333v64c0 47.129-38.205 85.334-85.333 85.334h-64c-47.128 0-85.333-38.205-85.333-85.333v-64c-1e-3 -47.129 38.204-85.334 85.333-85.334z"/>
    </symbol>
    <symbol id="events" viewBox="0 0 24 24">
        <path d="M12,0A10.011,10.011,0,0,0,2,10c0,5.282,8.4,12.533,9.354,13.343l.646.546.646-.546C13.6,22.533,22,15.282,22,10A10.011,10.011,0,0,0,12,0Zm0,15a5,5,0,1,1,5-5A5.006,5.006,0,0,1,12,15Z"/>
        <circle cx="12" cy="10" r="3"/>
    </symbol>
    <symbol id="settings" viewBox="0 0 512 512">
        <path d="m34.283 384c17.646 30.626 56.779 41.148 87.405 23.502 0.021-0.012 0.041-0.024 0.062-0.036l9.493-5.483c17.92 15.332 38.518 27.222 60.757 35.072v10.945c0 35.346 28.654 64 64 64s64-28.654 64-64v-10.944c22.242-7.863 42.841-19.767 60.757-35.115l9.536 5.504c30.633 17.673 69.794 7.167 87.467-23.467 17.673-30.633 7.167-69.794-23.467-87.467l-9.472-5.461c4.264-23.201 4.264-46.985 0-70.187l9.472-5.461c30.633-17.673 41.14-56.833 23.467-87.467-17.673-30.633-56.833-41.14-87.467-23.467l-9.493 5.483c-17.938-15.313-38.55-27.181-60.8-35.007v-10.944c0-35.346-28.654-64-64-64s-64 28.654-64 64v10.944c-22.242 7.863-42.841 19.767-60.757 35.115l-9.536-5.525c-30.634-17.674-69.794-7.167-87.467 23.466s-7.167 69.794 23.467 87.467l9.472 5.461c-4.264 23.201-4.264 46.985 0 70.187l-9.472 5.461c-30.549 17.72-41.021 56.804-23.424 87.424zm221.72-213.33c47.128 0 85.333 38.205 85.333 85.333s-38.205 85.333-85.333 85.333-85.333-38.205-85.333-85.333 38.205-85.333 85.333-85.333z"/>
    </symbol>
    <symbol id="role" viewBox="0 0 24 24">
        <path d="m12 16a8 8 0 1 1 8-8 8.009 8.009 0 0 1 -8 8zm0 2a9.938 9.938 0 0 1 -6-2.019v5.519a2.5 2.5 0 0 0 4.062 1.952l1.626-1.3a.5.5 0 0 1 .624 0l1.626 1.3a2.5 2.5 0 0 0 4.062-1.952v-5.519a9.94 9.94 0 0 1 -6 2.019z"/>
    </symbol>
    <symbol id="date" viewBox="0 0 24 24">
        <path d="M0,19a5.006,5.006,0,0,0,5,5H19a5.006,5.006,0,0,0,5-5V10H0Zm17-4.5A1.5,1.5,0,1,1,15.5,16,1.5,1.5,0,0,1,17,14.5Zm-5,0A1.5,1.5,0,1,1,10.5,16,1.5,1.5,0,0,1,12,14.5Zm-5,0A1.5,1.5,0,1,1,5.5,16,1.5,1.5,0,0,1,7,14.5Z"/>
        <path d="M19,2H18V1a1,1,0,0,0-2,0V2H8V1A1,1,0,0,0,6,1V2H5A5.006,5.006,0,0,0,0,7V8H24V7A5.006,5.006,0,0,0,19,2Z"/>
    </symbol>
    <symbol id="left" viewBox="0 0 24 24">
        <path d="M17.17,24a1,1,0,0,1-.71-.29L8.29,15.54a5,5,0,0,1,0-7.08L16.46.29a1,1,0,1,1,1.42,1.42L9.71,9.88a3,3,0,0,0,0,4.24l8.17,8.17a1,1,0,0,1,0,1.42A1,1,0,0,1,17.17,24Z"/>
    </symbol>
    <symbol id="right" viewBox="0 0 24 24">
        <path d="M7,24a1,1,0,0,1-.71-.29,1,1,0,0,1,0-1.42l8.17-8.17a3,3,0,0,0,0-4.24L6.29,1.71A1,1,0,0,1,7.71.29l8.17,8.17a5,5,0,0,1,0,7.08L7.71,23.71A1,1,0,0,1,7,24Z"/>
    </symbol>
    <symbol id="add" viewBox="0 0 24 24">
        <path d="M23 11H13V1a1 1 0 0 0-1-1 1 1 0 0 0-1 1v10H1a1 1 0 0 0-1 1 1 1 0 0 0 1 1h10v10a1 1 0 0 0 1 1 1 1 0 0 0 1-1V13h10a1 1 0 0 0 1-1 1 1 0 0 0-1-1Z"/>
    </symbol>
    <symbol id="delete" viewBox="0 0 24 24">
        <path d="M23.707.293a1 1 0 0 0-1.414 0L12 10.586 1.707.293a1 1 0 0 0-1.414 0 1 1 0 0 0 0 1.414L10.586 12 .293 22.293a1 1 0 0 0 0 1.414 1 1 0 0 0 1.414 0L12 13.414l10.293 10.293a1 1 0 0 0 1.414 0 1 1 0 0 0 0-1.414L13.414 12 23.707 1.707a1 1 0 0 0 0-1.414Z"/>
    </symbol>
</svg>
